<?xml version="1.0" encoding="UTF-8"?>
<svg id="Layer_1" data-name="Layer 1" xmlns="http://www.w3.org/2000/svg" viewBox="0 0 1190.55 841.89">
  <defs>
    <style>
      .cls-1 {
        fill: #f8f7f8;
      }
    </style>
  </defs>
  <path class="cls-1" d="M505.7,442.78c-9.84-5.79-13.22,23.63-68.85,41.55-2.75.89-3.82,4.19-2.13,6.53,4.12,5.69,10.88,17.42,11.81,30.52.24,3.35-4.95,3.92-5.36-.42h.02s1.09-32.36-41.82-52.59c-1.74-.82-3.75.45-3.77,2.38-.15,18.76.01,29.32,21.5,53.22,2.24,2.49-1.76,6.01-4.11,3.33-11.81-13.47-17.38-23.49-19.98-32.83-.48-1.73-2.02-2.95-3.81-3.05-5.29-.29-16.32-1.02-24.71-2.44-1.93-.33-3.82.7-4.58,2.51-4.03,9.59-11.29,19.11-26.74,31.39-1.21.96-3.02.68-3.87-.65-1.78-2.77,2.71-5.23,5.27-7.36,20.9-17.36,23.26-27.62,26.27-45.07.33-1.9-1.42-3.51-3.28-3.01-45.12,12.07-50.76,43.43-51.07,45.43-.36,1.27-1.59,2.08-2.9,1.91,0,0-2.9-.7-2.22-3.29,1-3.85,3.5-11.08,9.38-19.09,2.92-3.98,6.93-8.45,12.37-12.83,1.9-1.54,2.34-4.44.54-6.1-12.45-11.43-16.73-26.74-17.06-36.76.75-8.58,10.71-14.29,19.03-10.13-.01,0,12.22,7.16,20.23,10.06,86.3,31.32,147.83-30.67,147.87-30.71.89-1.05.37-2.67-.95-3.04-8.76-2.43-19.66-4.43-30.33-2.87-21.52,3.15-45.78,22.37-68.95,10.97-3.22-1.58-.94-6.38,2.24-4.8,20.6,10.25,43.88-8.18,65.94-11.4,11.14-1.63,22.31.27,31.41,2.7,1.98.53,6.26-1.89,5.72-3.87-.14-.51-.4-1.27-.45-1.39-4.28-10.93-10.61-22.32-17.29-31.76-30.44-42.98-86.4-68.88-144.87-58.34-4.01.72-1.1,6.97,0,10.57,2.78,9.07,2.81,14.32,2.81,14.53,0,3.43-5.29,3.52-5.3,0,0-.09-.69-15.11-10.09-27.79-19.96-26.92-46.62-40.03-59.51-45.13-1.87-.74-3.84.78-3.6,2.77,2,16.56,13.12,62.29,39.39,81.39,8.64,6.28,17.82,6.54,19.79,6.48,1.55-.05,2.15,1.45,2.15,1.45.71,1.85-.65,3.84-2.64,3.84h-.07c-15.78,0-27.92-11.81-30.36-14.53-2.49-2.77-24.4-37.97-98.36-23.95-1.94.37-2.81,2.68-1.59,4.23,24.36,30.98,53.98,42.56,61.91,44.1,20.83,4.06,37.17.7,37.33.67,3.33-.71,4.56,4.45,1.09,5.18-.44.09-7.13,1.47-17.38,1.47-5.58,0-12.19-.49-19.44-1.76-29.79-7.97-37.93-3.72-63.03,9.59-2.4,1.27-2.56,4.67-.28,6.15,16.61,10.85,31.47,16.5,44.09,19.12,8.05,1.67,26.57,4.74,43.68-2.74,2.86-1.25,5.07,3.6,1.79,5.01-6.29,2.71-23.78,8.82-50.41,2-2.35-.6-4.72.91-5.19,3.29-1.36,6.89-2.37,12.65-3.93,22.44-9.95,62.51,42.96,158.35,142.82,158.6,130.53.33,154.78-139.23,143.85-145.65ZM418.52,357c7.16-.9,13.17,5.12,12.27,12.28-.61,4.87-4.55,8.81-9.43,9.43-7.16.9-13.18-5.11-12.28-12.27.61-4.88,4.56-8.82,9.44-9.44Z"/>
  <g>
    <path class="cls-1" d="M855.77,462.69l61.18-83.57h-42.8l-39.95,53.82-39.61-53.82h-42.96l61.17,83.57-61.17,83.91h42.95l39.62-54.49,39.78,54.49h42.96l-61.18-83.91Z"/>
    <path class="cls-1" d="M1002.01,324.43c-6.47.78-24.33,5.12-31.79,15.38-2.36,3.25-2.54,6.68-2.53,7.62h0s0,.08,0,.11c.03.95-1.25,1.21-1.81.56-.05-.06-.1-.13-.14-.21,0,0-.12-.24-.11-.54.18-5.92,4.15-10.28,4.15-10.28,2.03-2.24,3.98-3.4,4.76-3.91,10.28-6.76,9.78-28.86,8.34-36.46-.14-.76-1.02-1.06-1.65-.62-13.11,9.07-18.04,19.75-19.75,27.4-.99,4.41.04,11.64.05,11.7.28,1.3-1.74,1.78-2.02.43-.09-.44-1.69-6.67-.38-11.55,2.89-9.48,1.35-17.65-3.84-27.45-.5-.94-1.82-1-2.4-.11-4.24,6.49-5.85,12.29-6.87,17.22-.31,1.5-.74,3.93-.8,6.78,0,0-.01,226.09-.01,226.09h34.77v-194.7c3.8-1.42,16.29-8.78,23.14-26.07.29-.73-.3-1.5-1.08-1.4ZM945.3,323.56s0-.05,0-.07c0,.02,0,.04,0,.06h0ZM945.22,322.41s0-.05,0-.07c0,.02,0,.05,0,.07Z"/>
    <path class="cls-1" d="M743.66,405.18c-6.46.78-22.54,5.12-30,15.38-2.36,3.25-2.54,6.68-2.53,7.62h0s0,.08,0,.11c.03.95-1.25,1.21-1.81.56-.05-.06-.1-.13-.14-.21,0,0-.12-.24-.11-.54.18-5.92,4.15-10.28,4.15-10.28,2.03-2.24,3.98-3.4,4.76-3.91,10.29-6.76,8.47-26.56,7.02-34.15-.14-.73-.99-1.07-1.6-.65-13.15,9.08-16.78,17.46-18.49,25.12-.99,4.41.04,11.64.05,11.7.28,1.3-1.74,1.78-2.02.43-.09-.44-1.69-6.67-.38-11.55,2.89-9.48,1.57-15.16-3.63-24.96-.5-.94-1.82-1-2.4-.11-4.24,6.49-6.06,9.81-7.09,14.73-.28,1.34-.65,3.43-.76,5.9-.01-.06-.03-.1-.04-.12-5.59-6.83-12.3-12.56-20.14-17.21-9.31-5.52-20.03-8.27-32.18-8.27s-23.1,2.26-33.51,6.77c-10.42,4.51-19.59,10.73-27.5,18.64s-14.1,17.13-18.55,27.66c-4.46,10.53-6.69,21.76-6.69,33.68s2.28,23.93,6.85,34.68c4.57,10.76,10.95,20.25,19.14,28.5,8.19,8.25,17.69,14.68,28.5,19.31,10.81,4.62,22.34,6.94,34.6,6.94,11.37,0,21.23-2.62,29.59-7.86,8.36-5.24,14.99-12.14,19.89-20.73,0,0,0-.07,0-.2,0,14.58,0,24.43,0,24.43h34.77v-113.94c3.87-1.44,14.51-8.84,21.33-26.08.29-.73-.29-1.5-1.07-1.4ZM681.18,490.44c-4.07,8.25-9.78,14.79-17.13,19.64-7.35,4.85-15.94,7.27-25.74,7.27s-18.19-2.42-26.16-7.27c-7.97-4.85-14.38-11.37-19.22-19.56-4.85-8.19-7.27-17.36-7.27-27.5s2.34-19.16,7.02-27.41c4.68-8.25,11.03-14.82,19.06-19.72,8.02-4.9,16.88-7.35,26.58-7.35s18.36,2.42,25.66,7.27c7.3,4.85,13.01,11.4,17.13,19.64,4.12,8.25,6.18,17.44,6.18,27.58s-2.03,19.17-6.1,27.41Z"/>
  </g>
</svg>