<?xml version="1.0" encoding="UTF-8"?>
<svg id="Layer_1" data-name="Layer 1" xmlns="http://www.w3.org/2000/svg" viewBox="0 0 2469.12 841.89">
  <defs>
    <style>
      .cls-1 {
        fill: #f8f7f8;
      }
    </style>
  </defs>
  <g>
    <path class="cls-1" d="M779.31,460.17l61.18-83.16h-42.8l-39.95,53.4-39.61-53.4h-42.96l61.17,83.16-61.17,83.91h42.95l39.62-54.49,39.78,54.49h42.96l-61.18-83.91Z"/>
    <path class="cls-1" d="M925.56,321.91c-6.47.78-24.33,5.12-31.79,15.38-2.36,3.25-2.54,6.68-2.53,7.62h0s0,.08,0,.11c.03.95-1.25,1.21-1.81.56-.05-.06-.1-.13-.14-.21,0,0-.12-.24-.11-.54.18-5.92,4.15-10.28,4.15-10.28,2.03-2.24,3.98-3.4,4.76-3.91,10.28-6.76,9.78-28.86,8.34-36.46-.14-.76-1.02-1.06-1.65-.62-13.11,9.07-18.04,19.75-19.75,27.4-.99,4.41.04,11.64.05,11.7.28,1.3-1.74,1.78-2.02.43-.09-.44-1.69-6.67-.38-11.55,2.89-9.48,1.35-17.65-3.84-27.45-.5-.94-1.82-1-2.4-.11-4.24,6.49-5.85,12.29-6.87,17.22-.31,1.5-.74,3.93-.8,6.78,0,0-.01,226.09-.01,226.09h34.77v-194.7c3.8-1.42,16.29-8.78,23.14-26.07.29-.73-.3-1.5-1.08-1.4ZM868.84,321.03s0-.05,0-.07c0,.02,0,.04,0,.06h0ZM868.77,319.89s0-.05,0-.07c0,.02,0,.05,0,.07Z"/>
    <path class="cls-1" d="M667.2,402.66c-6.46.78-22.54,5.12-30,15.38-2.36,3.25-2.54,6.68-2.53,7.62h0s0,.08,0,.11c.03.95-1.25,1.21-1.81.56-.05-.06-.1-.13-.14-.21,0,0-.12-.24-.11-.54.18-5.92,4.15-10.28,4.15-10.28,2.03-2.24,3.98-3.4,4.76-3.91,10.29-6.76,8.6-26.04,7.16-33.63-.14-.73-.99-1.07-1.6-.65-13.15,9.08-16.92,16.94-18.63,24.6-.99,4.41.04,11.64.05,11.7.28,1.3-1.74,1.78-2.02.43-.09-.44-1.69-6.67-.38-11.55,2.89-9.48,1.57-14.83-3.63-24.63-.5-.94-1.82-1-2.4-.11-4.24,6.49-6.06,9.47-7.09,14.4-.28,1.34-.65,3.43-.76,5.9-.01-.06-.03-.1-.04-.12-5.59-6.83-12.3-12.56-20.14-17.21-9.31-5.52-20.03-8.27-32.18-8.27s-23.1,2.26-33.51,6.77c-10.42,4.51-19.59,10.73-27.5,18.64s-14.1,17.13-18.55,27.66c-4.46,10.53-6.69,21.76-6.69,33.68s2.28,23.93,6.85,34.68c4.57,10.76,10.95,20.25,19.14,28.5,8.19,8.25,17.69,14.68,28.5,19.31,10.81,4.62,22.34,6.94,34.6,6.94,11.37,0,21.23-2.62,29.59-7.86,8.36-5.24,14.99-12.14,19.89-20.73,0,0,0-.07,0-.2,0,14.58,0,24.43,0,24.43h34.77v-113.94c3.87-1.44,14.51-8.84,21.33-26.08.29-.73-.29-1.5-1.07-1.4ZM604.73,487.92c-4.07,8.25-9.78,14.79-17.13,19.64-7.35,4.85-15.94,7.27-25.74,7.27s-18.19-2.42-26.16-7.27c-7.97-4.85-14.38-11.37-19.22-19.56-4.85-8.19-7.27-17.36-7.27-27.5s2.34-19.16,7.02-27.41c4.68-8.25,11.03-14.82,19.06-19.72,8.02-4.9,16.88-7.35,26.58-7.35s18.36,2.42,25.66,7.27c7.3,4.85,13.01,11.4,17.13,19.64,4.12,8.25,6.18,17.44,6.18,27.58s-2.03,19.17-6.1,27.41Z"/>
  </g>
  <g>
    <path class="cls-1" d="M1069.86,547.53c-9.36-.11-18.53-1.76-27.5-4.93-8.97-3.18-16.78-7.49-23.41-12.96-6.63-5.46-11.18-11.53-13.63-18.22l12.87-5.52c2.01,5.46,5.88,10.31,11.62,14.54,5.74,4.24,12.29,7.55,19.64,9.95,7.36,2.4,14.38,3.59,21.06,3.59,8.13,0,15.72-1.39,22.74-4.18,7.02-2.78,12.73-6.71,17.14-11.79,4.4-5.07,6.6-10.95,6.6-17.64,0-7.13-2.31-12.76-6.94-16.89-4.63-4.12-10.51-7.47-17.64-10.03-7.13-2.56-14.54-5.02-22.24-7.36-12.48-3.68-23.21-7.36-32.18-11.03-8.97-3.68-15.86-8.3-20.65-13.88-4.79-5.57-7.19-13.04-7.19-22.4s2.84-18.08,8.53-25.16c5.68-7.08,13.12-12.56,22.32-16.47,9.2-3.9,19.03-5.85,29.51-5.85,13.82,0,26.33,3.04,37.53,9.11,11.2,6.08,18.97,14.02,23.32,23.82l-12.04,7.02c-2.23-5.46-5.91-10.14-11.03-14.04-5.13-3.9-10.98-6.94-17.55-9.11-6.58-2.17-13.15-3.26-19.73-3.26-8.25,0-15.94,1.34-23.07,4.01-7.13,2.68-12.9,6.55-17.3,11.62-4.4,5.07-6.6,11.12-6.6,18.14s1.95,12.73,5.85,16.47c3.9,3.74,9.39,6.8,16.47,9.19,7.08,2.4,15.46,5.16,25.16,8.28,10.37,3.23,20.06,6.77,29.09,10.62,9.03,3.85,16.33,8.67,21.9,14.46,5.57,5.8,8.36,13.32,8.36,22.57s-2.87,18.11-8.61,25.24c-5.74,7.13-13.26,12.62-22.57,16.47-9.31,3.85-19.25,5.71-29.84,5.6Z"/>
    <path class="cls-1" d="M1243.05,391.39h-43.8l-.33,152.8h-14.38l.33-152.8h-33.1v-14.38h33.1l-.33-52.49h14.38l.33,52.49h43.8v14.38Z"/>
    <path class="cls-1" d="M1266.29,478.99v-101.98h14.38v100.48c0,10.48,2.53,19.98,7.61,28.5,5.07,8.53,11.9,15.35,20.48,20.48,8.58,5.13,18.11,7.69,28.59,7.69s19.81-2.56,28.34-7.69c8.53-5.12,15.35-11.95,20.48-20.48,5.13-8.53,7.69-18.03,7.69-28.5v-100.48h14.38v167.18h-14.38v-27.58c-6.13,9.59-14.29,17.3-24.49,23.16-10.2,5.85-21.37,8.78-33.52,8.78-12.82,0-24.49-3.12-35.02-9.36-10.53-6.24-18.92-14.63-25.16-25.16-6.24-10.53-9.36-22.21-9.36-35.02Z"/>
    <path class="cls-1" d="M1584.93,293.42h14.38v250.77h-14.38v-36.61c-5.91,12.26-14.41,22.15-25.49,29.68-11.09,7.52-24.38,11.28-39.87,11.28-12.15,0-23.52-2.29-34.1-6.85-10.59-4.57-19.92-10.89-28-18.97-8.08-8.08-14.41-17.41-18.97-28-4.57-10.59-6.85-21.96-6.85-34.1s2.28-23.71,6.85-34.36c4.57-10.64,10.89-20,18.97-28.09s17.41-14.4,28-18.97c10.59-4.57,21.96-6.85,34.1-6.85,15.49,0,28.78,3.76,39.87,11.28,11.09,7.52,19.59,17.42,25.49,29.67v-119.87ZM1519.56,534.33c13.6,0,25.19-3.32,34.77-9.95,9.58-6.63,16.91-15.55,21.98-26.75,5.07-11.2,7.61-23.54,7.61-37.03s-2.57-26.33-7.69-37.53c-5.13-11.2-12.51-20.09-22.15-26.67-9.64-6.57-21.15-9.86-34.52-9.86s-25.77,3.32-36.86,9.95c-11.09,6.63-19.95,15.58-26.58,26.83-6.63,11.26-9.95,23.69-9.95,37.28s3.4,26.3,10.2,37.45c6.8,11.15,15.74,19.98,26.83,26.5,11.09,6.52,23.21,9.78,36.36,9.78Z"/>
    <path class="cls-1" d="M1646.78,343.74c-2.57,0-4.79-.86-6.69-2.59-1.9-1.73-2.84-3.93-2.84-6.6s.95-5.02,2.84-6.69c1.89-1.67,4.12-2.51,6.69-2.51s4.76.84,6.6,2.51c1.84,1.67,2.76,3.84,2.76,6.52s-.89,5.04-2.67,6.77c-1.78,1.73-4.01,2.59-6.69,2.59ZM1639.43,377.01h14.38v167.18h-14.38v-167.18Z"/>
    <path class="cls-1" d="M1767.49,548.54c-15.38,0-29.4-3.96-42.05-11.87-12.65-7.91-22.74-18.53-30.26-31.85-7.52-13.32-11.28-28.06-11.28-44.22,0-12.26,2.17-23.71,6.52-34.36,4.35-10.64,10.34-20,17.97-28.09,7.63-8.08,16.52-14.4,26.67-18.97,10.14-4.57,20.95-6.85,32.43-6.85,15.38,0,29.4,3.96,42.05,11.87,12.65,7.91,22.74,18.56,30.26,31.93,7.52,13.37,11.28,28.2,11.28,44.47,0,12.15-2.17,23.52-6.52,34.1-4.35,10.59-10.34,19.92-17.97,28-7.64,8.08-16.5,14.41-26.58,18.97-10.09,4.57-20.93,6.85-32.52,6.85ZM1767.49,534.16c13.04,0,24.77-3.4,35.19-10.2,10.42-6.8,18.7-15.77,24.83-26.92,6.13-11.14,9.2-23.29,9.2-36.44s-3.07-25.5-9.2-36.7c-6.13-11.2-14.41-20.2-24.83-27-10.42-6.8-22.15-10.2-35.19-10.2s-24.94,3.4-35.36,10.2c-10.42,6.8-18.67,15.8-24.74,27-6.08,11.2-9.11,23.43-9.11,36.7s3.15,26.11,9.45,37.2c6.3,11.09,14.68,19.92,25.16,26.5,10.48,6.58,22.01,9.86,34.61,9.86Z"/>
    <path class="cls-1" d="M1934,547.53c-9.36-.11-18.53-1.76-27.5-4.93-8.97-3.18-16.78-7.49-23.41-12.96-6.63-5.46-11.18-11.53-13.63-18.22l12.87-5.52c2.01,5.46,5.88,10.31,11.62,14.54,5.74,4.24,12.29,7.55,19.64,9.95,7.36,2.4,14.38,3.59,21.06,3.59,8.13,0,15.72-1.39,22.74-4.18,7.02-2.78,12.73-6.71,17.14-11.79,4.4-5.07,6.6-10.95,6.6-17.64,0-7.13-2.31-12.76-6.94-16.89-4.63-4.12-10.51-7.47-17.64-10.03-7.13-2.56-14.54-5.02-22.24-7.36-12.48-3.68-23.21-7.36-32.18-11.03-8.97-3.68-15.86-8.3-20.65-13.88-4.79-5.57-7.19-13.04-7.19-22.4s2.84-18.08,8.53-25.16c5.68-7.08,13.12-12.56,22.32-16.47,9.2-3.9,19.03-5.85,29.51-5.85,13.82,0,26.33,3.04,37.53,9.11,11.2,6.08,18.97,14.02,23.32,23.82l-12.04,7.02c-2.23-5.46-5.91-10.14-11.03-14.04-5.13-3.9-10.98-6.94-17.55-9.11-6.58-2.17-13.15-3.26-19.73-3.26-8.25,0-15.94,1.34-23.07,4.01-7.13,2.68-12.9,6.55-17.3,11.62-4.4,5.07-6.6,11.12-6.6,18.14s1.95,12.73,5.85,16.47c3.9,3.74,9.39,6.8,16.47,9.19,7.08,2.4,15.46,5.16,25.16,8.28,10.37,3.23,20.06,6.77,29.09,10.62,9.03,3.85,16.33,8.67,21.9,14.46,5.57,5.8,8.36,13.32,8.36,22.57s-2.87,18.11-8.61,25.24c-5.74,7.13-13.26,12.62-22.57,16.47-9.31,3.85-19.25,5.71-29.84,5.6Z"/>
  </g>
</svg>