<svg width="100" height="100" viewBox="0 0 100 100" fill="none" xmlns="http://www.w3.org/2000/svg">
<path fill-rule="evenodd" clip-rule="evenodd" d="M23.1509 8.04199C19.1326 8.04199 15.2789 9.63824 12.4376 12.4796C9.59625 15.3209 8 19.1746 8 23.1929V76.2211C8 80.2394 9.59625 84.093 12.4376 86.9344C15.2789 89.7757 19.1326 91.372 23.1509 91.372H76.1791C80.1974 91.372 84.0511 89.7757 86.8924 86.9344C89.7337 84.093 91.33 80.2394 91.33 76.2211V23.1929C91.33 19.1746 89.7337 15.3209 86.8924 12.4796C84.0511 9.63824 80.1974 8.04199 76.1791 8.04199H23.1509ZM61.0282 28.8745H68.6036V65.9563C66.4636 66.6987 61.2024 68.1911 57.2859 68.1911C52.3922 68.1911 43.7183 65.6723 43.7183 53.9265C43.7183 43.7489 52.1914 39.9119 61.0282 39.9119V28.8745ZM61.0282 46.3889V61.5399C57.8844 61.5399 51.5589 60.7331 51.5589 53.9644C51.5589 47.1957 57.8844 46.3889 61.0282 46.3889ZM38.3018 32.6622H30.7264V66.7518H38.3018V32.6622Z" fill="#FAFAFB"/>
</svg>