<svg width="100" height="100" viewBox="0 0 100 100" fill="none" xmlns="http://www.w3.org/2000/svg">
<path d="M30.6417 46.2795V39.592C30.6417 39.1961 30.6417 39.0378 31.1583 39.0378C35.5875 39.0378 39.1875 38.7753 40.975 39.8295C42.7667 40.8795 42.8417 42.3295 42.8708 42.7628C42.9 43.1961 42.8875 43.817 42.0542 45.3295C41.2208 46.842 37.4917 46.8711 34.8 46.8711H31.2375C30.8 46.8711 30.6417 46.7128 30.6417 46.2795ZM42.9167 53.2878C43.3293 53.8146 43.6239 54.4239 43.7804 55.0746C43.9368 55.7252 43.9516 56.4019 43.8235 57.0587C43.6955 57.7155 43.4277 58.3371 43.0383 58.8813C42.6489 59.4255 42.147 59.8796 41.5667 60.2128C40.7142 60.5715 39.7998 60.7597 38.875 60.767H31.1958C30.8 60.767 30.6417 60.767 30.6417 60.2545V52.3378C30.6417 51.942 30.6417 51.7836 31.1583 51.7836H36.2625C39.4292 51.7836 41.4083 51.5086 42.9167 53.2878Z" fill="#FAFAFB"/>
<path d="M70.7875 49.6212C70.5752 49.1206 70.253 48.6741 69.8448 48.3149C69.4366 47.9557 68.9527 47.693 68.4292 47.5462C67.3827 47.2602 66.2874 47.1997 65.2157 47.3685C64.1441 47.5373 63.1205 47.9316 62.2125 48.5253C61.3077 49.4396 60.723 50.6221 60.5459 51.8962C60.5459 52.342 60.5459 52.4253 61.075 52.4253H70.95C71.4375 52.4253 71.4375 52.4253 71.3959 51.8128C71.3492 51.0471 71.1446 50.3001 70.7875 49.6212ZM70.7875 49.6212C70.5752 49.1206 70.2489 48.6741 69.8406 48.3149C69.4324 47.9557 68.9527 47.693 68.4292 47.5462C67.3827 47.2602 66.2874 47.1997 65.2157 47.3685C64.1441 47.5373 63.1205 47.9316 62.2125 48.5253C61.3077 49.4396 60.7188 50.6221 60.5417 51.8962C60.5417 52.342 60.5417 52.4253 61.0709 52.4253H70.95C71.4375 52.4253 71.4375 52.4253 71.3959 51.8128C71.3492 51.0471 71.1362 50.3001 70.7792 49.6212M75.4167 10.417H26.6667C22.3569 10.417 18.2237 12.129 15.1762 15.1765C12.1287 18.224 10.4167 22.3572 10.4167 26.667V75.417C10.4167 79.7268 12.1287 83.86 15.1762 86.9075C18.2237 89.9549 22.3569 91.667 26.6667 91.667H75.4167C79.7265 91.667 83.8597 89.9549 86.9072 86.9075C89.9546 83.86 91.6667 79.7268 91.6667 75.417V26.667C91.6667 22.3572 89.9546 18.224 86.9072 15.1765C83.8597 12.129 79.7265 10.417 75.4167 10.417ZM59.4917 36.292C59.4917 35.9712 59.4917 35.8462 59.8584 35.8462H73.0209V39.2628C73.0209 39.2628 73.0334 39.5045 72.8167 39.5045H60.0625C59.4917 39.5045 59.4917 39.5045 59.4917 38.9378V36.292ZM47.3042 66.1545C42.3042 68.8753 33.9 67.7795 23.9459 67.7795V34.1003H39.8292C43.8917 34.1003 48.725 35.117 50.025 39.4212C50.7001 41.3011 50.659 43.3638 49.9096 45.2153C49.1602 47.0668 47.7551 48.5775 45.9625 49.4587C47.6148 50.0701 49.0574 51.1421 50.1194 52.5478C51.1815 53.9535 51.8186 55.6341 51.9554 57.3906C52.0921 59.1471 51.7228 60.906 50.8912 62.4591C50.0595 64.0123 48.8003 65.2947 47.2625 66.1545H47.3042ZM77.5709 56.567H61.3209C60.875 56.567 60.4667 56.8087 60.5459 57.3795C61.0334 59.7753 62.1292 62.2962 64.6125 62.6628C65.9238 63.0531 67.328 62.9931 68.6012 62.4924C69.8744 61.9917 70.9433 61.0792 71.6375 59.9003C71.6375 59.9003 71.8417 59.6545 71.9625 59.6545H77.2458C77.2458 59.6545 77.5709 59.6545 77.4875 59.9378C76.9303 61.5155 76.1058 62.9856 75.05 64.2837C73.638 65.6325 71.9341 66.6377 70.0706 67.2214C68.2071 67.8051 66.2342 67.9514 64.305 67.6492C62.3758 67.3469 60.5422 66.6042 58.9465 65.4785C57.3509 64.3529 56.0361 62.8747 55.1042 61.1587C54.531 60.0143 54.1737 58.7742 54.05 57.5003C53.3253 54.2986 53.8792 50.9405 55.5937 48.1411C57.3082 45.3417 60.0479 43.3223 63.2292 42.5128C72.45 40.5212 78.3 46.8587 78.3 55.7962C78.3137 55.9006 78.3031 56.0068 78.2692 56.1066C78.2353 56.2063 78.179 56.2969 78.1045 56.3714C78.03 56.4459 77.9393 56.5023 77.8396 56.5362C77.7399 56.5701 77.6337 56.5807 77.5292 56.567H77.5709ZM68.4709 47.5462C67.4253 47.2561 66.3292 47.1964 65.2584 47.3712C64.1875 47.5378 63.2292 47.742 62.2542 48.5253C61.2792 49.3045 60.7625 50.6212 60.5875 51.8962C60.5875 52.342 60.5875 52.4253 61.1167 52.4253H70.95C71.4375 52.4253 71.4375 52.4253 71.3959 51.8128C71.3492 51.0471 71.1446 50.3001 70.7875 49.6212C70.5752 49.1206 70.253 48.6741 69.8448 48.3149C69.4366 47.9557 68.9527 47.693 68.4292 47.5462H68.4709Z" fill="#FAFAFB"/>
</svg>