<svg width="100" height="100" viewBox="0 0 100 100" fill="none" xmlns="http://www.w3.org/2000/svg">
<path d="M91.1208 54.888C90.9958 54.888 90.8708 54.9713 90.7875 55.1796C89.95 57.6005 88.7791 59.063 87.8208 59.063C87.2791 59.063 87.0708 58.438 87.0708 57.5213C87.0708 55.138 88.4875 50.0838 89.1958 47.7463C89.2791 47.4546 89.3208 47.2046 89.3208 46.9963C89.3208 46.3255 88.9458 45.988 88.0291 45.988C87.0708 45.988 85.9833 46.363 84.9791 48.163C84.6458 46.5755 83.5625 45.9046 82.0541 45.9046C80.3458 45.9046 78.6708 47.0338 77.2958 48.8296C75.9166 50.6255 74.2875 51.213 73.075 50.9171C73.95 48.7921 74.2833 47.1588 74.2833 45.988C74.2833 44.113 73.3666 42.9838 71.8666 42.9838C69.6083 42.9838 68.3125 45.1546 68.3125 47.4088C68.3125 49.163 69.1041 50.9588 70.8625 51.838C69.4 55.138 67.2708 58.1463 66.4333 58.1463C65.3916 58.1463 65.0583 53.0088 65.1416 49.3296C65.1833 47.2463 65.35 47.1213 65.35 46.4921C65.35 46.1171 65.1 45.8671 64.1375 45.8671C61.9208 45.8671 61.2125 47.7421 61.1291 49.9171C61.0875 50.7505 60.9625 51.5421 60.7541 52.338C59.8375 55.638 57.9125 58.188 56.6583 58.188C56.075 58.188 55.9083 57.6046 55.9083 56.8505C55.9083 54.4671 57.2416 51.463 57.2416 48.913C57.2416 47.038 56.4083 45.863 54.8666 45.863C53.025 45.863 50.6458 48.038 48.35 52.088C49.1 48.9963 49.3916 45.9921 47.1791 45.9921C46.6791 45.9921 46.2194 46.1171 45.8 46.3671C45.658 46.4329 45.5387 46.5392 45.4572 46.6727C45.3756 46.8062 45.3354 46.9608 45.3416 47.1171C45.55 50.4171 42.6666 58.8963 39.9541 58.8963C39.4541 58.8963 39.2041 58.3546 39.2041 57.4796C39.2041 55.0963 40.6208 50.0421 41.3291 47.7005C41.407 47.4436 41.4491 47.1772 41.4541 46.9088C41.4541 46.2838 41.0791 45.9505 40.1625 45.9505C39.2041 45.9505 38.1166 46.3255 37.1125 48.1171C36.7375 46.5338 35.6958 45.8671 34.1875 45.8671C31.725 45.8671 29.0083 48.4505 27.7958 51.838C26.1708 56.3505 22.9541 60.7338 18.5666 60.7338C14.6 60.7338 12.5083 57.4338 12.5083 52.213C12.5083 44.6546 18.0666 38.513 22.1583 38.513C24.1208 38.513 25.0416 39.763 25.0416 41.688C25.0416 44.0255 23.75 45.0713 23.75 45.988C23.75 46.238 23.9583 46.5296 24.4166 46.5296C26.2083 46.5296 28.3 44.4463 28.3 41.563C28.3 38.6796 26.0416 36.6338 21.95 36.6338C15.1416 36.6338 8.33331 43.4421 8.33331 52.2171C8.33331 59.188 11.7583 63.3671 17.6916 63.3671C21.7416 63.3671 25.2916 60.2338 27.1708 56.5588C27.3791 59.6088 28.7583 61.1921 30.8875 61.1921C32.7666 61.1921 34.2708 60.0671 35.4416 58.1046C35.9 60.1463 37.0666 61.1505 38.6166 61.1505C40.3666 61.1505 41.875 60.0255 43.25 57.9796C43.25 59.6046 43.5833 61.1505 45.0083 61.1505C45.675 61.1505 46.4666 60.9838 46.5916 60.4005C48.0958 54.2588 51.775 49.2046 52.9 49.2046C53.2333 49.2046 53.3166 49.538 53.3166 49.913C53.3166 51.588 52.15 55.013 52.15 57.1838C52.15 59.5671 53.15 61.1088 55.2416 61.1088C57.5375 61.1088 59.875 58.313 61.4208 54.1755C61.9208 58.0213 62.9666 61.1088 64.5958 61.1088C66.6 61.1088 70.2333 56.8505 72.4083 52.338C73.2416 52.463 74.5375 52.4213 75.7916 51.5463C75.25 52.8796 74.9583 54.3421 74.9583 55.763C74.9583 59.9421 76.9583 61.1088 78.6708 61.1088C80.55 61.1088 82.0541 59.9838 83.225 58.0213C83.6 59.7713 84.6 61.0671 86.4 61.0671C89.2 61.0671 91.6625 58.188 91.6625 55.8046C91.7041 55.3046 91.4125 54.888 91.1208 54.888ZM32.6416 58.8546C31.5166 58.8546 31.0583 57.7296 31.0583 56.013C31.0583 53.0505 33.1 48.0796 35.2333 48.0796C36.15 48.0796 36.525 49.163 36.525 50.5421C36.525 53.5505 34.6083 58.8546 32.6416 58.8546ZM71.6125 50.0005C70.9458 49.2088 70.6958 48.0796 70.6958 47.1171C70.6958 45.9088 71.1541 44.9046 71.6541 44.9046C72.1541 44.9046 72.3625 45.4046 72.3625 46.1546C72.3208 47.3255 71.9041 49.1213 71.6125 50.0005ZM80.425 58.8546C79.3 58.8546 78.8416 57.5213 78.8416 56.013C78.8416 53.1338 80.8833 48.0796 83.0166 48.0796C83.9333 48.0796 84.2666 49.163 84.2666 50.5421C84.3083 53.5505 82.4333 58.8546 80.425 58.8546Z" fill="#FAFAFB"/>
</svg>