<svg width="100" height="100" viewBox="0 0 100 100" fill="none" xmlns="http://www.w3.org/2000/svg">
<path fill-rule="evenodd" clip-rule="evenodd" d="M36.1125 39.2372C34.6991 39.2372 33.2996 39.5156 31.9939 40.0564C30.6881 40.5973 29.5017 41.39 28.5023 42.3894C27.5029 43.3888 26.7101 44.5753 26.1692 45.881C25.6284 47.1868 25.35 48.5863 25.35 49.9997C25.35 51.413 25.6284 52.8125 26.1692 54.1183C26.7101 55.4241 27.5029 56.6105 28.5023 57.6099C29.5017 58.6093 30.6881 59.4021 31.9939 59.9429C33.2996 60.4838 34.6991 60.7622 36.1125 60.7622H46.875V39.2372H36.1125ZM46.875 32.9872H36.1125C33.2576 32.9872 30.5195 31.8531 28.5008 29.8343C26.482 27.8155 25.3479 25.0775 25.3479 22.2226C25.3479 19.3676 26.482 16.6296 28.5008 14.6109C30.5195 12.5921 33.2576 11.458 36.1125 11.458H46.875V32.9872ZM53.125 11.458V32.9872H63.8875C66.7058 32.9317 69.3899 31.7732 71.3634 29.7605C73.3369 27.7478 74.4424 25.0414 74.4424 22.2226C74.4424 19.4038 73.3369 16.6974 71.3634 14.6847C69.3899 12.6719 66.7058 11.5135 63.8875 11.458H53.125ZM63.8875 39.233C61.0625 39.2327 58.3506 40.3431 56.337 42.3246C54.3235 44.3062 53.1698 47 53.125 49.8247V50.1705C53.1595 52.2913 53.8199 54.3547 55.0233 56.1014C56.2266 57.8481 57.9193 59.2003 59.8887 59.9881C61.8581 60.7759 64.0163 60.9643 66.0924 60.5294C68.1684 60.0946 70.0697 59.056 71.5574 57.5441C73.0451 56.0322 74.0529 54.1144 74.4542 52.0316C74.8555 49.9488 74.6324 47.7939 73.8129 45.8375C72.9934 43.8811 71.6141 42.2104 69.8482 41.0354C68.0823 39.8603 66.0086 39.2333 63.8875 39.233ZM36.1125 67.0122C33.9829 67.0113 31.9008 67.6421 30.1297 68.8247C28.3586 70.0072 26.978 71.6884 26.1624 73.6557C25.3469 75.623 25.1331 77.7879 25.548 79.8768C25.963 81.9656 26.9881 83.8844 28.4937 85.3905C29.9993 86.8967 31.9177 87.9225 34.0063 88.3383C36.095 88.7541 38.26 88.5411 40.2276 87.7263C42.1952 86.9116 43.877 85.5316 45.0602 83.7609C46.2434 81.9902 46.875 79.9085 46.875 77.7788V67.0122H36.1125Z" fill="#FAFAFB"/>
</svg>