<svg width="30" height="36" viewBox="0 0 30 36" fill="none" xmlns="http://www.w3.org/2000/svg">
<path d="M20.17 2.91667C20.17 2.13167 20.17 1.73833 19.925 1.49333C19.6833 1.25 19.2883 1.25 18.5033 1.25H13.945C9.41 1.25 5.45333 5.43333 5.71833 12.0833H2.91667C2.13167 12.0833 1.73833 12.0833 1.49333 12.3267C1.25 12.5717 1.25 12.9667 1.25 13.75V16.25C1.25 17.035 1.25 17.4283 1.49333 17.6733C1.73833 17.9167 2.13333 17.9167 2.91667 17.9167H6.25V32.9167C6.25 33.7017 6.25 34.095 6.49333 34.34C6.73833 34.5833 7.13333 34.5833 7.91667 34.5833H11.25C12.035 34.5833 12.4283 34.5833 12.6733 34.34C12.9167 34.095 12.9167 33.7 12.9167 32.9167V17.9167H20.4667V32.9167C20.4667 33.7017 20.4667 34.095 20.7117 34.34C20.955 34.5833 21.3483 34.5833 22.135 34.5833H26.25C27.035 34.5833 27.4283 34.5833 27.6733 34.34C27.9167 34.095 27.9167 33.7 27.9167 32.9167V15.4167C27.9167 13.845 27.9167 13.06 27.4283 12.5717C26.94 12.0833 26.155 12.0833 24.5833 12.0833H12.9167V9.96667C12.9167 8.75 13.75 7.08333 15.9117 7.08333H18.5033C19.2883 7.08333 19.6817 7.08333 19.925 6.84C20.17 6.595 20.17 6.20167 20.17 5.41667V2.91667Z" stroke="#FAFAFB" stroke-width="2.5" stroke-linecap="round" stroke-linejoin="round"/>
</svg>
