<svg width="100" height="100" viewBox="0 0 100 100" fill="none" xmlns="http://www.w3.org/2000/svg">
<path d="M50 8.33301C44.5283 8.33301 39.1101 9.41075 34.0549 11.5047C28.9996 13.5986 24.4063 16.6678 20.5372 20.5369C12.7232 28.3509 8.33334 38.949 8.33334 49.9997C8.33334 68.4163 20.2917 84.0413 36.8333 89.583C38.9167 89.9163 39.5833 88.6247 39.5833 87.4997V80.458C28.0417 82.958 25.5833 74.8747 25.5833 74.8747C23.6667 70.0413 20.9583 68.7497 20.9583 68.7497C17.1667 66.1663 21.25 66.2497 21.25 66.2497C25.4167 66.5413 27.625 70.5413 27.625 70.5413C31.25 76.8747 37.375 74.9997 39.75 73.9997C40.125 71.2913 41.2083 69.458 42.375 68.4163C33.125 67.3747 23.4167 63.7913 23.4167 47.9163C23.4167 43.2913 25 39.583 27.7083 36.6247C27.2917 35.583 25.8333 31.2497 28.125 25.6247C28.125 25.6247 31.625 24.4997 39.5833 29.8747C42.875 28.958 46.4583 28.4997 50 28.4997C53.5417 28.4997 57.125 28.958 60.4167 29.8747C68.375 24.4997 71.875 25.6247 71.875 25.6247C74.1667 31.2497 72.7083 35.583 72.2917 36.6247C75 39.583 76.5833 43.2913 76.5833 47.9163C76.5833 63.833 66.8333 67.333 57.5417 68.3747C59.0417 69.6663 60.4167 72.208 60.4167 76.083V87.4997C60.4167 88.6247 61.0833 89.958 63.2083 89.583C79.75 83.9997 91.6667 68.4163 91.6667 49.9997C91.6667 44.5279 90.5889 39.1098 88.495 34.0545C86.401 28.9993 83.3319 24.406 79.4628 20.5369C75.5937 16.6678 71.0004 13.5986 65.9451 11.5047C60.8899 9.41075 55.4717 8.33301 50 8.33301Z" fill="#FAFAFB"/>
</svg>