<svg width="100" height="100" viewBox="0 0 100 100" fill="none" xmlns="http://www.w3.org/2000/svg">
<path d="M88.9583 46.2497H50.75V57.6247H77.875C76.5 73.4997 63.2917 80.2913 50.7917 80.2913C34.8333 80.2913 20.8333 67.708 20.8333 49.9997C20.8333 32.9163 34.1667 19.708 50.8333 19.708C63.7083 19.708 71.25 27.9163 71.25 27.9163L79.1667 19.6663C79.1667 19.6663 69 8.33301 50.4167 8.33301C26.75 8.33301 8.45834 28.333 8.45834 49.9997C8.45834 71.0413 25.6667 91.6663 51.0417 91.6663C73.3333 91.6663 89.5833 76.3747 89.5833 53.7913C89.5833 48.9997 88.9583 46.2497 88.9583 46.2497Z" fill="#FAFAFB"/>
</svg>