<svg width="100" height="100" viewBox="0 0 100 100" fill="none" xmlns="http://www.w3.org/2000/svg">
<path d="M43.375 39.5C44.8333 44.25 46.3333 49 47.8333 53.8333H39C40.5 49 41.9167 44.25 43.375 39.5Z" fill="#FAFAFB"/>
<path d="M70.8333 8.33301H29.1667C23.6413 8.33301 18.3423 10.5279 14.4353 14.4349C10.5283 18.342 8.33334 23.641 8.33334 29.1663V70.833C8.33334 76.3583 10.5283 81.6574 14.4353 85.5644C18.3423 89.4714 23.6413 91.6663 29.1667 91.6663H70.8333C76.3587 91.6663 81.6577 89.4714 85.5647 85.5644C89.4717 81.6574 91.6667 76.3583 91.6667 70.833V29.1663C91.6667 23.641 89.4717 18.342 85.5647 14.4349C81.6577 10.5279 76.3587 8.33301 70.8333 8.33301ZM60.375 69.9163H53.875C53.6157 69.9523 53.3527 69.8852 53.1423 69.7294C52.932 69.5736 52.7911 69.3415 52.75 69.083C51.9583 66.7497 51.125 64.4163 50.3333 62.0413C50.3084 61.8924 50.2537 61.7501 50.1726 61.6227C50.0915 61.4954 49.9856 61.3857 49.8611 61.3001C49.7367 61.2146 49.5964 61.155 49.4484 61.1248C49.3005 61.0947 49.148 61.0946 49 61.1247H37.9167C37.7627 61.0884 37.6029 61.0849 37.4475 61.1145C37.2922 61.1442 37.1448 61.2062 37.0151 61.2967C36.8853 61.3871 36.7761 61.5039 36.6945 61.6394C36.613 61.7749 36.5609 61.926 36.5417 62.083C35.8333 64.4163 35.0417 66.6663 34.3333 68.9997C34.3135 69.1469 34.2636 69.2885 34.1868 69.4156C34.11 69.5427 34.0078 69.6527 33.8867 69.7386C33.7655 69.8246 33.628 69.8847 33.4826 69.9153C33.3373 69.9459 33.1872 69.9462 33.0417 69.9163H27.3333C26.3333 69.9163 26.25 69.9163 26.5833 68.8747L35.5833 42.9163C36.4167 40.5413 37.25 38.1663 38 35.7913C38.206 35.0869 38.3181 34.3584 38.3333 33.6247C38.3333 32.7497 38.6667 32.5413 39.4583 32.583H47.4167C48 32.583 48.2917 32.583 48.5 33.3747L58.75 62.2497C59.5417 64.4997 60.3333 66.708 61.0833 68.9163C61.4167 69.833 61.375 69.9163 60.375 69.9163ZM73.125 69.208C73.125 69.9163 72.8333 70.1247 72.1667 70.1247H66.1667C65.3333 70.1247 65.125 69.7913 65.125 69.0413V42.8747C65.125 42.0413 65.375 41.708 66.25 41.7497H72.125C72.7917 41.7497 73.125 41.7497 73.125 42.6663C73.0972 51.4997 73.0972 60.3469 73.125 69.208ZM68.9583 38.7913C68.3613 38.8293 67.7631 38.7381 67.2044 38.5242C66.6457 38.3103 66.1397 37.9786 65.7206 37.5517C65.3016 37.1247 64.9794 36.6125 64.7759 36.0499C64.5725 35.4874 64.4926 34.8876 64.5417 34.2913C64.547 33.6987 64.6704 33.1131 64.9047 32.5687C65.139 32.0243 65.4795 31.5321 65.9062 31.1209C66.333 30.7097 66.8374 30.3876 67.3901 30.1737C67.9428 29.9597 68.5326 29.858 69.125 29.8747C69.7014 29.8728 70.2719 29.9906 70.8004 30.2205C71.329 30.4504 71.8041 30.7875 72.1957 31.2105C72.5873 31.6334 72.8869 32.133 73.0755 32.6776C73.2642 33.2223 73.3378 33.8001 73.2917 34.3747C73.3258 34.9425 73.2433 35.5113 73.0492 36.0461C72.8552 36.5808 72.5537 37.0701 72.1633 37.4839C71.7729 37.8977 71.302 38.2272 70.7794 38.452C70.2569 38.6769 69.6939 38.7924 69.125 38.7913H68.9583Z" fill="#FAFAFB"/>
<path d="M47.8333 53.8333H39C40.5 49 41.9167 44.25 43.1667 39.5C44.8333 44.25 46.3333 49 47.8333 53.8333Z" fill="#FAFAFB"/>
</svg>