<svg width="100" height="100" viewBox="0 0 100 100" fill="none" xmlns="http://www.w3.org/2000/svg">
<path fill-rule="evenodd" clip-rule="evenodd" d="M66.7625 18.7629C74.3875 18.2379 80.2792 22.6879 84.2 27.8212C88.15 33.0004 90.8708 39.7629 92.3667 46.4129C93.8542 53.0629 94.2542 60.2087 93.0167 66.3004C91.8292 72.1504 88.6583 78.8421 81.4875 80.9879C74.7375 83.0046 68.8208 80.0712 64.6042 76.5212C60.3708 72.9587 56.7875 67.9671 53.9708 63.2879C52.6523 61.0899 51.4153 58.8439 50.2625 56.5546C49.1109 58.8424 47.8754 61.087 46.5583 63.2837C43.7417 67.9671 40.1583 72.9587 35.925 76.5212C31.7042 80.0712 25.7917 83.0046 19.0417 80.9879C11.8708 78.8421 8.7 72.1546 7.5125 66.3004C6.27917 60.2087 6.67917 53.0629 8.16667 46.4129C9.65833 39.7629 12.3792 32.9962 16.3333 27.8212C20.25 22.6879 26.1417 18.2379 33.7667 18.7629C40.9167 19.2629 46.1125 24.1087 49.35 28.2171L50.2667 29.4212L51.1792 28.2129C54.4167 24.1087 59.6125 19.2587 66.7625 18.7629ZM32.9 31.2337C31.15 31.1129 28.8583 32.0087 26.2667 35.4087C23.7083 38.7629 21.5833 43.7129 20.3625 49.1504C19.1417 54.5879 18.9667 59.8962 19.7625 63.8171C20.45 67.1921 21.5542 68.4046 22.2292 68.8296L22.5125 68.9712L22.625 69.0129C23.5917 69.3046 25.1833 69.2212 27.875 66.9546C30.5625 64.6962 33.3042 61.0671 35.85 56.8421C36.9833 54.9546 38.0375 53.0212 38.9833 51.1629L40.0667 48.9754L41.0375 46.9046L41.8958 44.9962L42.625 43.3004L43.2208 41.8587C42.4137 40.24 41.4904 38.6817 40.4583 37.1962C37.775 33.3796 35.0833 31.3879 32.9 31.2379V31.2337ZM67.6292 31.2337C65.4458 31.3879 62.7542 33.3796 60.0708 37.1962C59.0388 38.6817 58.1155 40.24 57.3083 41.8587L58.2542 44.1212L59.0458 45.9296L59.4917 46.9046L60.4667 48.9754L61.55 51.1629C62.4958 53.0212 63.5458 54.9546 64.6792 56.8421C67.225 61.0671 69.9708 64.6962 72.65 66.9546C75.1542 69.0629 76.7042 69.2796 77.6917 69.0671L77.9083 69.0129C78.45 68.8462 79.9208 67.9754 80.7667 63.8129C81.5583 59.8962 81.3875 54.5879 80.1667 49.1462C78.95 43.7129 76.825 38.7629 74.2625 35.4087C71.6667 32.0087 69.3792 31.1171 67.6292 31.2337Z" fill="#FAFAFB"/>
</svg>