<svg width="92" height="100" viewBox="0 0 92 100" fill="none" xmlns="http://www.w3.org/2000/svg">
<path d="M45.8333 99.8166C44.4083 99.8166 43.0833 99.4458 41.8458 98.8041L29.225 91.5625C27.3292 90.5541 28.2792 90.1874 28.85 90.0041C31.4083 89.1791 31.8833 88.9958 34.5417 87.525C34.825 87.3416 35.2083 87.4333 35.4917 87.6166L45.1708 93.2124C45.5458 93.3958 46.025 93.3958 46.3083 93.2124L84.1708 72.0291C84.5458 71.8458 84.7375 71.4791 84.7375 71.0208V28.7458C84.7375 28.2875 84.55 27.9208 84.1708 27.7375L46.3083 6.64995C45.9292 6.46662 45.4542 6.46662 45.1708 6.64995L7.30833 27.7375C6.92917 27.9208 6.7375 28.3791 6.7375 28.7458V71.0208C6.7375 71.3875 6.92917 71.8458 7.30833 72.0291L17.65 77.8083C23.25 80.5583 26.7583 77.35 26.7583 74.1416V32.4166C26.7583 31.8666 27.2333 31.3166 27.9 31.3166H32.7375C33.3083 31.3166 33.875 31.775 33.875 32.4166V74.1375C33.875 81.3833 29.7958 85.6 22.6792 85.6C20.4958 85.6 18.7875 85.5999 13.95 83.3083L3.9875 77.8083C2.78788 77.1471 1.78609 76.1783 1.08524 75.0014C0.38439 73.8245 0.00979332 72.4822 0 71.1124V28.8375C0 26.0875 1.51667 23.5208 3.9875 22.1458L41.85 0.958288C43.0831 0.327791 44.4483 -0.000976563 45.8333 -0.000976562C47.2183 -0.000976562 48.5835 0.327791 49.8167 0.958288L87.6833 22.1416C90.15 23.5166 91.6667 26.0833 91.6667 28.8333V71.1083C91.6667 73.8583 90.15 76.4249 87.6833 77.8041L49.8208 98.9833C48.5623 99.5289 47.205 99.8097 45.8333 99.8083M57.5042 70.7374C40.9 70.7374 37.4833 63.4041 37.4833 57.1666C37.4833 56.6166 37.9583 56.0666 38.6208 56.0666H43.5542C44.125 56.0666 44.5958 56.4333 44.5958 56.9833C45.3583 61.8416 47.5417 64.225 57.6 64.225C65.5708 64.225 68.9875 62.4833 68.9875 58.3583C68.9875 55.9749 68.0375 54.2333 55.6083 53.0416C45.2625 52.0291 38.8125 49.8333 38.8125 41.8541C38.8125 34.425 45.2625 30.0208 56.0833 30.0208C68.2292 30.0208 74.2083 34.0583 74.9667 42.8624C74.9574 43.1604 74.8571 43.4483 74.6792 43.6875C74.4917 43.8708 74.2083 44.0541 73.9208 44.0541H68.9875C68.7478 44.0483 68.5166 43.9647 68.3287 43.8158C68.1407 43.667 68.0064 43.4611 67.9458 43.2291C66.8042 38.1875 63.8625 36.5333 56.0833 36.5333C47.35 36.5333 46.3083 39.4666 46.3083 41.6708C46.3083 44.3291 47.5417 45.1541 59.3083 46.6208C70.9792 48.0875 76.4833 50.1958 76.4833 58.0791C76.3875 66.1541 69.5583 70.7374 57.5042 70.7374Z" fill="#FAFAFB"/>
</svg>