<svg width="100" height="100" viewBox="0 0 100 100" fill="none" xmlns="http://www.w3.org/2000/svg">
<path fill-rule="evenodd" clip-rule="evenodd" d="M74.75 10.1412L75.5417 10.6287L83.7917 16.1287C84.8352 16.8251 85.708 17.748 86.3451 18.8288C86.9821 19.9095 87.367 21.1202 87.4708 22.3704L87.5 23.0621V75.3079C87.4999 77.2955 86.7893 79.2176 85.4965 80.7274C84.2037 82.2371 82.4139 83.2351 80.45 83.5412L79.8042 83.6162L31.7667 87.312C30.488 87.4103 29.2039 87.2122 28.0143 86.7331C26.8248 86.2539 25.7619 85.5067 24.9083 84.5495L24.4625 84.0037L15 71.387C13.5619 69.4691 12.7057 67.1781 12.5333 64.787L12.5 63.887V20.5246C12.5001 18.5369 13.2107 16.6148 14.5035 15.105C15.7963 13.5953 17.5861 12.5973 19.55 12.2912L20.1958 12.2162L67.6458 8.56622C70.1163 8.37593 72.5876 8.92414 74.7458 10.1412H74.75ZM79.1667 29.4996L33.3333 33.0246V78.8329L79.1667 75.3079V29.4996ZM66.6667 35.4162C67.7717 35.4162 68.8315 35.8552 69.6129 36.6366C70.3943 37.418 70.8333 38.4778 70.8333 39.5829V68.7495C70.8333 69.8546 70.3943 70.9144 69.6129 71.6958C68.8315 72.4772 67.7717 72.9162 66.6667 72.9162H64.5833C63.8715 72.9164 63.1714 72.7342 62.5499 72.387C61.9285 72.0398 61.4063 71.5392 61.0333 70.9329L50 52.9995V70.8329C50 71.9379 49.561 72.9978 48.7796 73.7792C47.9982 74.5606 46.9384 74.9995 45.8333 74.9995C44.7283 74.9995 43.6685 74.5606 42.8871 73.7792C42.1057 72.9978 41.6667 71.9379 41.6667 70.8329V41.6662C41.6667 40.5611 42.1057 39.5013 42.8871 38.7199C43.6685 37.9385 44.7283 37.4996 45.8333 37.4996H47.9167C48.6285 37.4994 49.3286 37.6815 49.95 38.0287C50.5715 38.3759 51.0936 38.8766 51.4667 39.4829L62.5 57.412V39.5829C62.5 38.4778 62.939 37.418 63.7204 36.6366C64.5018 35.8552 65.5616 35.4162 66.6667 35.4162ZM68.2833 16.8746L26.0208 20.1246L30.7583 24.8621L76.5833 21.3412L70.9167 17.5621C70.1406 17.0446 69.2133 16.8025 68.2833 16.8746Z" fill="#FAFAFB"/>
</svg>