<svg width="100" height="100" viewBox="0 0 100 100" fill="none" xmlns="http://www.w3.org/2000/svg">
<path fill-rule="evenodd" clip-rule="evenodd" d="M41.6667 8.33301C44.5853 8.33178 47.4531 9.097 49.9831 10.5521C52.5132 12.0073 54.6167 14.1013 56.0833 16.6247L56.4917 17.383L59.15 15.8497C62.3209 14.018 66.0069 13.2816 69.6382 13.7544C73.2695 14.2272 76.644 15.8827 79.2403 18.4652C81.8365 21.0477 83.51 24.4134 84.002 28.0422C84.4941 31.6709 83.7773 35.3607 81.9625 38.5413L81.4917 39.3163L84.15 40.8497C87.3208 42.6804 89.8005 45.5043 91.206 48.8852C92.6115 52.266 92.8647 56.0156 91.9264 59.5546C90.988 63.0937 88.9104 66.2253 86.0145 68.4656C83.1185 70.706 79.5655 71.9304 75.9042 71.9497L75 71.933V74.9997C75.0011 78.6654 73.7936 82.2292 71.5646 85.1393C69.3356 88.0494 66.2093 90.1435 62.6699 91.0973C59.1304 92.051 55.3753 91.8113 51.9858 90.4152C48.5964 89.0192 45.7618 86.5446 43.9208 83.3747L43.5042 82.6163L40.85 84.1497C37.6791 85.9813 33.9931 86.7177 30.3618 86.2449C26.7305 85.7722 23.356 84.1166 20.7597 81.5341C18.1635 78.9516 16.49 75.5859 15.998 71.9572C15.5059 68.3284 16.2227 64.6386 18.0375 61.458L18.5083 60.683L15.85 59.1497C12.6792 57.3189 10.1995 54.495 8.79398 51.1142C7.38845 47.7334 7.1353 43.9838 8.07365 40.4447C9.01199 36.9056 11.0896 33.774 13.9855 31.5337C16.8815 29.2934 20.4345 28.069 24.0958 28.0497L25 28.0663V24.9997C25 20.5794 26.756 16.3402 29.8816 13.2146C33.0072 10.089 37.2464 8.33301 41.6667 8.33301ZM61.2583 53.283L60.975 70.1955C60.9648 70.823 60.813 71.4401 60.5309 72.0007C60.2488 72.5613 59.8437 73.0509 59.3458 73.433L58.8917 73.733L50.7417 78.4413C51.5099 80.1231 52.8151 81.5019 54.4522 82.3613C56.0893 83.2206 57.9654 83.5117 59.7859 83.1888C61.6064 82.8659 63.2681 81.9473 64.5098 80.5774C65.7514 79.2075 66.5028 77.4639 66.6458 75.6205L66.6667 74.9997V56.5247L61.2583 53.2788V53.283ZM52.7875 61.3913L37.9958 69.5997C37.367 69.9488 36.6586 70.1292 35.9394 70.1234C35.2202 70.1175 34.5147 69.9256 33.8917 69.5663L25.7417 64.858C24.6344 66.4067 24.0905 68.2877 24.2004 70.1883C24.3103 72.089 25.0674 73.8947 26.3457 75.3055C27.6241 76.7163 29.3468 77.6471 31.2274 77.9431C33.108 78.2392 35.0334 77.8828 36.6833 76.933L52.6833 67.6955L52.7875 61.3913ZM63.9833 38.8288L58.4708 41.8913L72.9792 50.5955C73.5955 50.9658 74.1055 51.4892 74.4596 52.1149C74.8137 52.7407 74.9999 53.4474 75 54.1663V63.5788C76.8924 63.7576 78.7891 63.2847 80.376 62.2384C81.963 61.1921 83.145 59.6352 83.7263 57.8254C84.3077 56.0157 84.2535 54.0617 83.5729 52.287C82.8922 50.5122 81.6258 49.0232 79.9833 48.0663L63.9833 38.8288ZM25 36.4163C23.1606 36.2375 21.314 36.6749 19.7502 37.6597C18.1864 38.6445 16.9941 40.121 16.3607 41.8571C15.7273 43.5933 15.6887 45.4906 16.2509 47.2511C16.8131 49.0115 17.9443 50.5353 19.4667 51.583L20.0167 51.9288L36.0167 61.1663L41.5292 58.1038L27.0208 49.4038C26.4824 49.0807 26.0239 48.64 25.6798 48.1147C25.3356 47.5895 25.1146 46.9932 25.0333 46.3705L25 45.833V36.4163ZM41.6667 16.6663C39.4565 16.6663 37.3369 17.5443 35.7741 19.1071C34.2113 20.6699 33.3333 22.7895 33.3333 24.9997V43.4747L38.7417 46.7205L39.025 29.8038C39.0366 29.0838 39.2346 28.3791 39.5997 27.7583C39.9649 27.1376 40.4846 26.6222 41.1083 26.2622L49.2583 21.558C48.5968 20.0993 47.529 18.8621 46.1826 17.9946C44.8362 17.1271 43.2684 16.6659 41.6667 16.6663ZM74.7 26.1163C73.6513 24.2995 71.956 22.945 69.9525 22.3232C67.949 21.7015 65.7847 21.8582 63.8917 22.7622L63.3167 23.0663L47.3167 32.3038L47.2125 38.608L62.0042 30.3997C62.5524 30.095 63.1624 29.918 63.7887 29.8819C64.4149 29.8458 65.0412 29.9516 65.6208 30.1913L66.1083 30.433L74.2625 35.1413C76.1042 32.558 76.3875 29.0372 74.7 26.1163Z" fill="#FAFAFB"/>
</svg>