<svg width="100" height="100" viewBox="0 0 100 100" fill="none" xmlns="http://www.w3.org/2000/svg">
<path d="M43.5417 43.6669C43.6047 44.932 43.2224 46.1792 42.4611 47.1917C41.6999 48.2041 40.6079 48.9178 39.375 49.2085C37.2 49.8509 34.9315 50.1186 32.6667 50.0002C32.0833 50.0002 32.0417 49.6252 32.0417 49.2085V38.5835C32.0417 38.2919 32.3333 37.7919 32.5 37.7919C34.8835 37.525 37.2954 37.6801 39.625 38.2502C40.7974 38.5715 41.8249 39.2837 42.5372 40.2688C43.2495 41.2539 43.6039 42.4528 43.5417 43.6669Z" fill="#FAFAFB"/>
<path d="M70.8333 8.33301H29.1667C23.6413 8.33301 18.3423 10.5279 14.4353 14.4349C10.5283 18.342 8.33333 23.641 8.33333 29.1663V70.833C8.33333 76.3583 10.5283 81.6574 14.4353 85.5644C18.3423 89.4714 23.6413 91.6663 29.1667 91.6663H70.8333C76.3587 91.6663 81.6577 89.4714 85.5647 85.5644C89.4717 81.6574 91.6667 76.3583 91.6667 70.833V29.1663C91.6667 23.641 89.4717 18.342 85.5647 14.4349C81.6577 10.5279 76.3587 8.33301 70.8333 8.33301ZM45.8333 54.1663C43.7305 55.5019 41.3205 56.2765 38.8333 56.4163H33.25C32.0833 56.4163 32.0833 56.4163 32.0833 57.5413V67.208C32.0833 68.0413 31.8333 68.2913 31 68.2913H25.5C24.7083 68.2913 24.5 67.9997 24.5 67.2497V32.1247C24.5 31.2913 24.5 31.0413 25.5417 31.0413H38.5833C40.9638 31.1058 43.2879 31.7801 45.3333 32.9997C47.0998 33.995 48.5705 35.4413 49.5953 37.1908C50.6201 38.9403 51.1624 40.9304 51.1667 42.958C51.4077 45.1374 51.0363 47.3408 50.0941 49.3207C49.152 51.3007 47.6765 52.9787 45.8333 54.1663ZM70.5 67.9163C66.8764 69.3281 62.9092 69.6042 59.125 68.708C57.9889 68.458 56.8778 68.1247 55.7917 67.708C55.6242 67.6294 55.4769 67.5134 55.3613 67.3689C55.2458 67.2244 55.1649 67.0553 55.125 66.8747V60.583C56.4583 61.083 57.7083 61.6663 59 62.083C61.1647 62.7749 63.4567 62.9742 65.7083 62.6663C66.1583 62.583 66.5889 62.4441 67 62.2497C67.2442 62.1427 67.4565 61.9743 67.6161 61.7608C67.7758 61.5474 67.8774 61.2961 67.911 61.0317C67.9445 60.7672 67.909 60.4986 67.8077 60.252C67.7065 60.0054 67.543 59.7892 67.3333 59.6247C66.3802 58.9648 65.3608 58.4063 64.2917 57.958C62.5833 57.1247 60.8333 56.458 59.2083 55.4997C57.7411 54.7859 56.5432 53.6179 55.7926 52.1692C55.042 50.7205 54.7786 49.0683 55.0417 47.458C55.2536 45.9082 55.8974 44.4494 56.8995 43.2483C57.9016 42.0472 59.2216 41.1525 60.7083 40.6663C63.388 39.7602 66.2475 39.5171 69.0417 39.958C70.375 39.958 71.6667 40.458 73 40.708C73.7083 40.708 73.9583 41.2913 73.9167 41.9997V46.8747C73.9167 47.7913 73.7083 47.8747 72.875 47.5413C70.2726 46.3365 67.396 45.8475 64.5417 46.1247C64.1373 46.1717 63.7432 46.2843 63.375 46.458C63.125 46.5562 62.9051 46.7179 62.7368 46.9272C62.5686 47.1365 62.4579 47.3861 62.4159 47.6513C62.3738 47.9165 62.4017 48.1882 62.4968 48.4393C62.592 48.6904 62.751 48.9123 62.9583 49.083C64.1639 49.8858 65.4278 50.5802 66.75 51.1663C68.3333 51.958 70 52.583 71.5417 53.458C72.9406 54.0946 74.0994 55.1616 74.849 56.5034C75.5986 57.8451 75.8997 59.3914 75.7083 60.9163C75.5766 62.4376 75.0123 63.8894 74.082 65.1003C73.1517 66.3111 71.8943 67.2305 70.4583 67.7497L70.5 67.9163Z" fill="#FAFAFB"/>
</svg>