<svg width="100" height="100" viewBox="0 0 100 100" fill="none" xmlns="http://www.w3.org/2000/svg">
<path d="M37.6667 89.7497C41.6667 90.958 45.7084 91.6663 50 91.6663C61.0507 91.6663 71.6488 87.2765 79.4628 79.4625C87.2768 71.6484 91.6667 61.0504 91.6667 49.9997C91.6667 44.5279 90.589 39.1098 88.495 34.0545C86.4011 28.9993 83.3319 24.406 79.4628 20.5369C75.5937 16.6678 71.0004 13.5986 65.9452 11.5047C60.8899 9.41075 55.4718 8.33301 50 8.33301C44.5283 8.33301 39.1101 9.41075 34.0549 11.5047C28.9997 13.5986 24.4064 16.6678 20.5373 20.5369C12.7232 28.3509 8.33337 38.949 8.33337 49.9997C8.33337 67.708 19.4584 82.9163 35.1667 88.9163C34.7917 85.6663 34.4167 80.2913 35.1667 76.583L39.9584 55.9997C39.9584 55.9997 38.75 53.583 38.75 49.7497C38.75 43.9997 42.3334 39.708 46.4167 39.708C50 39.708 51.6667 42.333 51.6667 45.708C51.6667 49.2913 49.2917 54.4163 48.0834 59.333C47.375 63.4163 50.25 66.9997 54.4167 66.9997C61.8334 66.9997 67.5834 59.083 67.5834 47.9163C67.5834 37.9163 60.4167 31.083 50.125 31.083C38.375 31.083 31.4584 39.833 31.4584 49.0413C31.4584 52.6247 32.625 56.2497 34.5417 58.6247C34.9167 58.8747 34.9167 59.208 34.7917 59.833L33.5834 64.3747C33.5834 65.083 33.125 65.333 32.4167 64.833C27.0834 62.4997 24 54.9163 24 48.7913C24 35.6247 33.3334 23.6663 51.3334 23.6663C65.6667 23.6663 76.8334 33.958 76.8334 47.6247C76.8334 61.958 67.9584 73.458 55.25 73.458C51.2084 73.458 47.25 71.2913 45.8334 68.7497L43.0417 78.6247C42.0834 82.208 39.4584 86.9997 37.6667 89.8747V89.7497Z" fill="#FAFAFB"/>
</svg>