<svg width="100" height="100" viewBox="0 0 100 100" fill="none" xmlns="http://www.w3.org/2000/svg">
<path d="M50 42.1247C54.2916 42.1247 57.7916 45.6247 57.7916 49.9997C57.7916 54.1663 54.2916 57.708 50 57.708C45.7083 57.708 42.2083 54.1663 42.2083 49.9997C42.2083 45.6247 45.7083 42.1247 50 42.1247ZM30.7083 83.333C33.3333 84.9163 39.0833 82.4997 45.7083 76.2497C43.5416 73.7913 41.4166 71.1247 39.4166 68.333C36.0592 68.0093 32.7213 67.5086 29.4166 66.833C27.2916 75.7497 28.0833 81.8747 30.7083 83.333ZM33.6666 59.4163L32.4583 57.2913C32 58.4997 31.5416 59.708 31.25 60.8747C32.375 61.1247 33.625 61.333 34.9166 61.5413L33.6666 59.4163ZM60.9166 56.2497L64.2916 49.9997L60.9166 43.7497C59.6666 41.5413 58.3333 39.583 57.125 37.6247C54.875 37.4997 52.5 37.4997 50 37.4997C47.5 37.4997 45.125 37.4997 42.875 37.6247C41.6666 39.583 40.3333 41.5413 39.0833 43.7497L35.7083 49.9997L39.0833 56.2497C40.3333 58.458 41.6666 60.4163 42.875 62.3747C45.125 62.4997 47.5 62.4997 50 62.4997C52.5 62.4997 54.875 62.4997 57.125 62.3747C58.3333 60.4163 59.6666 58.458 60.9166 56.2497ZM50 28.2497C49.2083 29.1663 48.375 30.1247 47.5416 31.2497H52.4583C51.625 30.1247 50.7916 29.1663 50 28.2497ZM50 71.7497C50.7916 70.833 51.625 69.8747 52.4583 68.7497H47.5416C48.375 69.8747 49.2083 70.833 50 71.7497ZM69.25 16.6663C66.6666 15.083 60.9166 17.4997 54.2916 23.7497C56.4583 26.208 58.5833 28.8747 60.5833 31.6663C64 31.9997 67.375 32.4997 70.5833 33.1663C72.7083 24.2497 71.9166 18.1247 69.25 16.6663ZM66.3333 40.583L67.5416 42.708C68 41.4997 68.4583 40.2913 68.75 39.1247C67.625 38.8747 66.375 38.6663 65.0833 38.458L66.3333 40.583ZM72.375 11.208C78.5 14.708 79.1666 23.9163 76.5833 34.6663C87.1666 37.7913 94.7916 42.958 94.7916 49.9997C94.7916 57.0413 87.1666 62.208 76.5833 65.333C79.1666 76.083 78.5 85.2913 72.375 88.7913C66.2916 92.2913 58 88.2914 50 80.6664C42 88.2914 33.7083 92.2913 27.5833 88.7913C21.5 85.2913 20.8333 76.083 23.4166 65.333C12.8333 62.208 5.20831 57.0413 5.20831 49.9997C5.20831 42.958 12.8333 37.7913 23.4166 34.6663C20.8333 23.9163 21.5 14.708 27.5833 11.208C33.7083 7.70801 42 11.708 50 19.333C58 11.708 66.2916 7.70801 72.375 11.208ZM71.1666 49.9997C72.5833 53.1247 73.8333 56.2497 74.875 59.4163C83.625 56.7913 88.5416 53.0413 88.5416 49.9997C88.5416 46.958 83.625 43.208 74.875 40.583C73.8333 43.7497 72.5833 46.8747 71.1666 49.9997ZM28.8333 49.9997C27.4166 46.8747 26.1666 43.7497 25.125 40.583C16.375 43.208 11.4583 46.958 11.4583 49.9997C11.4583 53.0413 16.375 56.7913 25.125 59.4163C26.1666 56.2497 27.4166 53.1247 28.8333 49.9997ZM66.3333 59.4163L65.0833 61.5413C66.375 61.333 67.625 61.1247 68.75 60.8747C68.4583 59.708 68 58.4997 67.5416 57.2913L66.3333 59.4163ZM54.2916 76.2497C60.9166 82.4997 66.6666 84.9163 69.25 83.333C71.9166 81.8747 72.7083 75.7497 70.5833 66.833C67.375 67.4997 64 67.9997 60.5833 68.333C58.5833 71.1247 56.4583 73.7913 54.2916 76.2497ZM33.6666 40.583L34.9166 38.458C33.625 38.6663 32.375 38.8747 31.25 39.1247C31.5416 40.2913 32 41.4997 32.4583 42.708L33.6666 40.583ZM45.7083 23.7497C39.0833 17.4997 33.3333 15.083 30.7083 16.6663C28.0833 18.1247 27.2916 24.2497 29.4166 33.1663C32.7213 32.4907 36.0592 31.99 39.4166 31.6663C41.4166 28.8747 43.5416 26.208 45.7083 23.7497Z" fill="#FAFAFB"/>
</svg>