<svg width="100" height="100" viewBox="0 0 100 100" fill="none" xmlns="http://www.w3.org/2000/svg">
<path d="M50 25C38.875 25 31.9583 30.5417 29.1666 41.6667C33.3333 36.125 38.2083 34.0417 43.75 35.4167C46.9166 36.2083 49.2083 38.5 51.7083 41.0417C55.7916 45.2083 60.4166 50 70.8333 50C81.9583 50 88.875 44.4583 91.6666 33.3333C87.5 38.875 82.625 40.9583 77.0833 39.5833C73.9166 38.7917 71.6666 36.5 69.125 33.9583C65.0416 29.7917 60.4166 25 50 25ZM29.1666 50C18.0416 50 11.125 55.5417 8.33331 66.6667C12.5 61.125 17.375 59.0417 22.9166 60.4167C26.0833 61.2083 28.3333 63.5 30.875 66.0417C34.9583 70.2083 39.5833 75 50 75C61.125 75 68.0416 69.4583 70.8333 58.3333C66.6666 63.875 61.7916 65.9583 56.25 64.5833C53.0833 63.7917 50.8333 61.5 48.2916 58.9583C44.2083 54.7917 39.5833 50 29.1666 50Z" fill="#FAFAFB"/>
</svg>