<svg width="100" height="100" viewBox="0 0 100 100" fill="none" xmlns="http://www.w3.org/2000/svg">
<path d="M76.0417 15.625H23.9583C19.356 15.625 15.625 19.356 15.625 23.9583V76.0417C15.625 80.644 19.356 84.375 23.9583 84.375H76.0417C80.644 84.375 84.375 80.644 84.375 76.0417V23.9583C84.375 19.356 80.644 15.625 76.0417 15.625Z" stroke="#FAFAFB" stroke-width="6.25" stroke-linecap="round" stroke-linejoin="round"/>
<path d="M71.875 46.875H63.5417C62.4366 46.875 61.3768 47.314 60.5954 48.0954C59.814 48.8768 59.375 49.9366 59.375 51.0417V55.2083C59.375 56.3134 59.814 57.3732 60.5954 58.1546C61.3768 58.936 62.4366 59.375 63.5417 59.375H67.7083C68.8134 59.375 69.8732 59.814 70.6546 60.5954C71.436 61.3768 71.875 62.4366 71.875 63.5417V67.7083C71.875 68.8134 71.436 69.8732 70.6546 70.6546C69.8732 71.436 68.8134 71.875 67.7083 71.875H59.375M39.5833 46.875V71.875M31.25 46.875H47.9167" stroke="#FAFAFB" stroke-width="6.25" stroke-linecap="round" stroke-linejoin="round"/>
</svg>