<svg width="100" height="100" viewBox="0 0 100 100" fill="none" xmlns="http://www.w3.org/2000/svg">
<path fill-rule="evenodd" clip-rule="evenodd" d="M23.4708 74.058C22.7803 74.6229 21.9267 74.9513 21.0357 74.9948C20.1446 75.0383 19.2631 74.7946 18.5208 74.2997L12.2708 70.133C11.7638 69.7948 11.3371 69.3495 11.0209 68.8285C10.7046 68.3075 10.5066 67.7234 10.4406 67.1175C10.3747 66.5116 10.4424 65.8986 10.6391 65.3217C10.8359 64.7449 11.1568 64.2182 11.5792 63.7788L24.8333 49.9997L11.5833 36.2205C11.1609 35.7811 10.84 35.2545 10.6433 34.6776C10.4466 34.1007 10.3788 33.4877 10.4448 32.8818C10.5107 32.2759 10.7088 31.6919 11.025 31.1709C11.3413 30.6498 11.7679 30.2045 12.275 29.8663L18.525 25.6997C19.2672 25.2047 20.1488 24.9611 21.0398 25.0046C21.9309 25.0481 22.7845 25.3764 23.475 25.9413L37.1833 37.158L63.6417 9.64134C64.0329 9.23333 64.5016 8.90746 65.0203 8.68281C65.539 8.45816 66.0973 8.33924 66.6625 8.33301H66.6667C67.5682 8.33301 68.4454 8.62542 69.1667 9.16634L85.8333 21.6663C86.3508 22.0545 86.7708 22.5577 87.0601 23.1363C87.3494 23.7148 87.5 24.3528 87.5 24.9997V74.9997C87.5 75.6465 87.3494 76.2845 87.0601 76.8631C86.7708 77.4416 86.3508 77.9449 85.8333 78.333L69.1667 90.833C68.3473 91.4479 67.33 91.7394 66.3093 91.6518C65.2886 91.5642 64.3359 91.1036 63.6333 90.358L37.175 62.8455L23.4708 74.058ZM62.5 57.8747V42.1247L52.875 49.9997L62.5 57.8747Z" fill="#FAFAFB"/>
</svg>